<?xml version="1.0" encoding="UTF-8"?>
<svg id="Livello_2" data-name="Livello 2" xmlns="http://www.w3.org/2000/svg" viewBox="0 0 281.44 48.64">
  <defs>
    <style>
      .cls-1 {
        fill: #4d35d8;
      }
    </style>
  </defs>
  <g id="Livello_1-2" data-name="Livello 1">
    <g>
      <path class="cls-1" d="M5.2,47.68C2.62,47.39.23,44.75,0,42.19V10.25c.25-2.98,2.72-5.39,5.69-5.66,2.09-.19,4.42.12,6.54-.01-.17-1.94.95-3.88,2.89-4.34,1.41-.33,6.04-.24,7.65-.13,2.44.17,3.77,2.13,3.73,4.47,3.08.25,6.85-.73,9.55,1.09,3.66,2.47,2.57,6.76,2.68,10.52,0,.32.31.83-.14.92-.81.15-2.01-.15-2.86.19v-7.14s-.28-.72-.34-.83c-1.23-2.39-4.49-1.46-6.65-1.65v1.6s-.27.55-.33.65c-.43.74-1.31,1.33-2.16,1.43-4.42-.26-9.32.39-13.68.01-.97-.08-1.84-.62-2.32-1.47-.06-.11-.35-.77-.35-.82v-1.41c-2.66.08-6.32-.77-6.87,2.79l-.03,31.04c.14,2.05,1.43,2.92,3.36,3.15h19.2c.86,1.05,1.81,2.19,2.98,2.92v.14c-.01.14-.12-.05-.14-.05H5.2ZM23.28,3.33l-7.75-.07c-.19.09-.27.48-.29.68-.05.47-.06,3.01.07,3.32.04.1.13.2.22.27l7.7-.04c.15-.1.15-.37.17-.54.07-.83.07-2.29,0-3.12-.01-.18-.01-.36-.12-.51Z"/>
      <path class="cls-1" d="M38.04,19.65c11.5-.56,19.08,11.89,13.24,21.88-5.2,8.9-18.03,9.56-24.13,1.29-6.9-9.35-.69-22.6,10.89-23.17ZM37.56,22.37c-8.3.74-13.14,10.12-9.16,17.45,3.51,6.45,12.32,8.21,17.96,3.39,8.87-7.58,2.79-21.87-8.8-20.84Z"/>
      <path class="cls-1" d="M16.12,28.65l11.61-12.81c1.86-1.47,4.49.61,3.19,2.71-4.23,4.44-8.17,9.18-12.42,13.6-1.21,1.26-2.31,2.43-4.08,1.06-1.82-2.15-3.99-4.1-5.83-6.21-.68-.78-1.15-1.38-.85-2.51.34-1.3,2.1-1.78,3.17-1.07s2.68,2.81,3.65,3.82c.32.33.98,1.08,1.31,1.31.08.06.1.13.24.09Z"/>
      <path class="cls-1" d="M39.68,24.8c.16.16.3.47.33.69.14,1.14.06,2.94.1,4.17.01.41-.09,2.55-.05,2.68.05.14.49.44.64.8.21.47.1.98.27,1.29.31.55,2.62,2.62,3.26,3.25.14.14.32.21.44.33,1.11,1.14-.2,2.9-1.61,2.09l-3.88-3.8c-2.39.28-3.59-2.32-1.9-4.02.15-2.1-.19-4.44,0-6.51.11-1.24,1.45-1.92,2.4-.98Z"/>
    </g>
    <g>
      <path class="cls-1" d="M85.82,31.65h.11l4.86-18.48h6.55l-7.87,27.14h-6.71l-4.91-17.8h-.11l-5.02,17.8h-6.97l-7.5-27.14h6.87l4.44,18.54h.11l5.23-18.54h6.02l4.91,18.48Z"/>
      <path class="cls-1" d="M127.49,26.69c0,7.97-5.97,14.26-14.1,14.26s-14.1-6.28-14.1-14.26,5.97-14.21,14.1-14.21,14.1,6.28,14.1,14.21ZM113.39,18.08c-4.44,0-7.6,3.86-7.6,8.61s3.17,8.66,7.6,8.66,7.6-3.86,7.6-8.66-3.17-8.61-7.6-8.61Z"/>
      <path class="cls-1" d="M139.59,16.97c1.64-2.64,3.8-4.49,6.6-4.49,1.27,0,2.27.16,3.27.48l-1.43,5.97c-.79-.42-1.58-.58-2.59-.58-2.32,0-4.28,1.32-5.6,3.64v18.33h-6.44V13.12h5.86l.32,3.85Z"/>
      <path class="cls-1" d="M169.37,40.31l-6.87-10.93-3.33,3.86v7.08h-6.39V.71h6.39v24.45l.11.05,9.66-12.09h7.45l-9.61,11.25,10.4,15.95h-7.82Z"/>
      <path class="cls-1" d="M188.49,18.5v21.81h-6.39v-21.81h-3.01v-5.39h3.01v-2.91c0-3.01.53-5.44,1.85-7.18,1.43-1.9,3.8-2.96,7.5-2.96,1.48,0,3.01.26,4.44.74l-1,5.33c-.84-.32-1.74-.47-2.8-.47-1.27,0-2.06.32-2.59.9-.84.84-1,2.32-1,4.12v2.43h7.02v5.39h-7.02ZM206.02,40.31h-6.39V.71h6.39v39.61Z"/>
      <path class="cls-1" d="M240.14,26.69c0,7.97-5.97,14.26-14.1,14.26s-14.1-6.28-14.1-14.26,5.97-14.21,14.1-14.21,14.1,6.28,14.1,14.21ZM226.04,18.08c-4.44,0-7.6,3.86-7.6,8.61s3.17,8.66,7.6,8.66,7.6-3.86,7.6-8.66-3.17-8.61-7.6-8.61Z"/>
      <path class="cls-1" d="M269.93,31.65h.11l4.86-18.48h6.55l-7.87,27.14h-6.71l-4.91-17.8h-.11l-5.02,17.8h-6.97l-7.5-27.14h6.87l4.44,18.54h.11l5.23-18.54h6.02l4.91,18.48Z"/>
    </g>
  </g>
</svg>